<?xml version="1.0" standalone="no"?>
<!DOCTYPE svg PUBLIC "-//W3C//DTD SVG 20010904//EN"
 "http://www.w3.org/TR/2001/REC-SVG-20010904/DTD/svg10.dtd">
<svg version="1.0" xmlns="http://www.w3.org/2000/svg"
 width="147.000000pt" height="43.000000pt" viewBox="0 0 147.000000 43.000000"
 preserveAspectRatio="xMidYMid meet">

<g transform="translate(0.000000,43.000000) scale(0.100000,-0.100000)"
fill="#000000" stroke="none">
<path d="M450 220 c0 -38 19 -59 21 -22 0 11 2 12 6 4 4 -10 8 -10 19 -1 11 9
14 8 14 -5 0 -9 5 -16 10 -16 13 0 13 67 1 75 -6 3 -15 -3 -20 -12 -10 -17
-12 -17 -21 0 -18 29 -30 19 -30 -23z"/>
<path d="M552 248 c-17 -17 -15 -57 3 -64 8 -4 23 -3 33 2 15 7 14 8 -5 11
-15 3 -23 11 -23 25 0 14 5 18 15 15 8 -4 17 -2 20 2 3 5 -2 12 -11 15 -20 8
-18 8 -32 -6z"/>
<path d="M610 245 c0 -20 22 -65 32 -65 4 0 8 5 8 12 0 9 3 9 12 0 19 -19 26
-15 38 24 15 45 7 55 -14 17 -16 -27 -16 -27 -10 -3 4 21 1 26 -15 26 -14 0
-21 -7 -22 -21 0 -19 -1 -19 -9 3 -11 25 -20 29 -20 7z"/>
<path d="M727 253 c-4 -3 -7 -21 -7 -40 0 -30 3 -33 30 -33 36 0 38 7 8 20
-18 7 -19 9 -5 9 9 1 17 5 17 10 0 5 -8 12 -17 14 -17 4 -17 5 0 6 9 0 17 6
17 11 0 11 -33 14 -43 3z"/>
<path d="M790 219 c0 -38 1 -40 28 -37 22 2 27 8 28 33 1 32 -10 45 -38 45
-14 0 -18 -9 -18 -41z"/>
<path d="M892 224 c3 -34 6 -39 28 -39 22 0 25 5 28 39 2 25 0 36 -7 31 -6 -3
-11 -17 -11 -31 0 -13 -4 -24 -10 -24 -5 0 -10 11 -10 24 0 14 -5 28 -11 31
-7 5 -9 -6 -7 -31z"/>
<path d="M965 243 c4 -10 10 -28 12 -40 7 -32 17 -29 37 13 18 39 13 60 -9 31
-11 -15 -13 -16 -19 -2 -3 8 -10 15 -17 15 -7 0 -8 -7 -4 -17z"/>
</g>
</svg>
